<?xml version="1.0" encoding="utf-8"?>
<svg
            xmlns="http://www.w3.org/2000/svg"
            width="171"
            height="61"
            viewBox="0 0 1714 612"
          >
            <g>
              <path
                d="M 584.50,533.65 L 582.95,533.14 L 580.31,532.08 L 579.05,531.53 L 576.84,530.29 L 575.76,529.64 L 573.77,528.10 L 570.80,525.33 L 569.51,524.00 L 567.38,521.08 L 566.39,519.57 L 564.84,516.36 L 564.14,514.71 L 563.18,511.26 L 562.78,509.50 L 562.41,505.87 L 562.31,504.03 L 562.54,500.28 L 562.73,498.39 L 563.57,494.57 L 564.06,492.65 L 565.50,488.83 L 568.33,483.15 L 569.02,481.97 L 570.84,479.16 L 571.80,477.69 L 574.03,474.48 L 576.32,471.21 L 581.32,464.55 L 582.54,462.96 L 584.85,460.06 L 585.96,458.68 L 587.90,456.39 L 588.36,455.87 L 589.16,454.98 L 589.55,454.56 L 590.20,453.91 L 590.51,453.62 L 590.98,453.24 L 591.46,453.00 L 591.60,453.00 L 592.06,453.28 L 592.32,453.47 L 593.00,454.09 L 593.36,454.44 L 594.22,455.37 L 594.67,455.87 L 595.69,457.06 L 596.74,458.31 L 599.19,461.43 L 600.45,463.07 L 603.14,466.73 L 605.86,470.47 L 611.08,478.24 L 612.29,480.10 L 614.37,483.51 L 614.86,484.33 L 615.70,485.82 L 616.76,487.84 L 617.55,489.42 L 618.68,491.99 L 619.19,493.21 L 619.87,495.42 L 620.17,496.52 L 620.53,498.87 L 620.85,503.08 L 620.95,505.24 L 620.72,509.02 L 620.52,510.84 L 619.62,514.19 L 619.08,515.83 L 617.42,519.04 L 613.96,524.04 L 613.21,525.00 L 611.31,526.77 L 610.32,527.63 L 608.02,529.17 L 606.84,529.91 L 604.27,531.20 L 602.95,531.80 L 600.21,532.78 L 598.83,533.23 L 596.04,533.88 L 594.64,534.16 L 591.91,534.43 L 590.56,534.51 L 588.01,534.37 L 586.76,534.24 M 501.68,489.53 L 500.51,489.11 L 498.56,488.18 L 497.64,487.69 L 496.12,486.51 L 495.41,485.87 L 494.19,484.34 L 492.57,481.51 L 492.40,481.16 L 492.12,480.27 L 491.98,479.78 L 491.76,478.48 L 491.66,477.77 L 491.49,475.90 L 491.41,474.88 L 491.28,472.27 L 491.23,470.85 L 491.14,467.32 L 491.13,466.37 L 491.09,464.27 L 491.08,463.19 L 491.06,460.81 L 491.05,459.57 L 491.03,456.88 L 491.02,455.49 L 491.01,452.47 L 491.01,450.91 L 491.00,447.53 L 491.00,442.05 L 491.00,439.54 L 491.00,435.01 L 491.00,432.82 L 491.00,428.87 L 490.99,426.97 L 490.97,423.56 L 490.96,421.92 L 490.92,419.01 L 490.90,417.61 L 490.84,415.14 L 490.80,413.95 L 490.70,411.87 L 490.64,410.88 L 490.50,409.15 L 490.42,408.32 L 490.23,406.88 L 490.03,405.51 L 489.43,403.46 L 489.10,402.51 L 488.22,401.02 L 487.74,400.30 L 486.50,398.97 L 484.19,396.74 L 483.07,395.68 L 481.20,393.17 L 480.79,392.55 L 480.17,391.38 L 479.62,389.86 L 479.58,389.65 L 479.50,388.88 L 479.46,388.44 L 479.38,387.26 L 479.34,386.62 L 479.28,385.09 L 479.24,384.28 L 479.18,382.46 L 479.13,380.57 L 479.05,376.15 L 479.00,369.02 L 479.00,366.93 L 478.99,363.44 L 478.98,361.80 L 478.95,359.11 L 478.92,357.86 L 478.85,355.83 L 478.80,354.89 L 478.67,353.39 L 478.60,352.69 L 478.39,351.58 L 478.28,351.06 L 477.99,350.20 L 476.74,347.90 L 475.94,346.70 L 473.73,344.60 L 472.56,343.62 L 469.85,342.10 L 468.46,341.43 L 465.61,340.65 L 461.53,340.49 L 460.46,340.65 L 458.17,341.49 L 457.02,341.97 L 454.80,343.31 L 453.72,344.02 L 451.85,345.67 L 449.76,348.29 L 449.65,348.49 L 449.44,349.31 L 449.34,349.79 L 449.15,351.20 L 449.06,351.98 L 448.90,354.05 L 448.82,355.17 L 448.67,357.95 L 448.60,359.43 L 448.48,362.97 L 448.41,364.85 L 448.30,369.21 L 448.24,371.51 L 448.14,376.75 L 448.00,385.68 L 447.97,387.79 L 447.91,391.63 L 447.89,393.50 L 447.83,396.88 L 447.81,398.52 L 447.75,401.47 L 447.73,402.90 L 447.67,405.46 L 447.65,406.69 L 447.59,408.89 L 447.56,409.94 L 447.50,411.81 L 447.47,412.70 L 447.39,414.26 L 447.36,415.01 L 447.28,416.31 L 447.19,417.55 L 446.98,419.36 L 446.87,420.17 L 446.59,421.34 L 446.44,421.87 L 446.08,422.65 L 445.41,423.68 L 444.75,424.56 L 443.32,426.10 L 442.58,426.83 L 441.00,428.05 L 440.19,428.62 L 438.51,429.51 L 437.65,429.92 L 435.88,430.48 L 434.99,430.71 L 433.17,430.94 L 432.26,431.00 L 430.42,430.87 L 429.50,430.76 L 427.68,430.28 L 424.98,429.14 L 424.12,428.67 L 422.67,427.77 L 421.99,427.31 L 420.89,426.25 L 420.37,425.69 L 419.55,424.26 L 419.18,423.49 L 418.60,421.49 L 418.33,420.39 L 417.94,417.60 L 417.85,416.85 L 417.70,415.15 L 417.63,414.27 L 417.51,412.30 L 417.45,411.28 L 417.35,409.02 L 417.30,407.85 L 417.22,405.26 L 417.18,403.93 L 417.11,400.99 L 417.00,396.17 L 416.50,371.83 L 413.23,368.92 L 409.97,366.00 L 372.43,366.00 L 370.53,366.00 L 366.98,366.00 L 365.25,365.99 L 362.02,365.98 L 360.45,365.98 L 357.52,365.96 L 356.10,365.96 L 353.45,365.93 L 350.88,365.91 L 346.49,365.84 L 344.41,365.80 L 340.92,365.69 L 339.27,365.64 L 336.51,365.49 L 335.21,365.41 L 333.04,365.22 L 332.02,365.11 L 330.29,364.87 L 328.04,364.44 L 326.00,363.98 L 321.95,362.53 L 319.94,361.73 L 316.03,359.68 L 314.09,358.58 L 310.40,356.01 L 308.60,354.66 L 305.22,351.65 L 303.59,350.10 L 300.62,346.74 L 299.20,345.03 L 296.74,341.41 L 295.58,339.58 L 293.71,335.79 L 291.67,330.00 L 291.55,329.51 L 291.32,328.24 L 291.21,327.55 L 291.01,325.86 L 290.91,324.95 L 290.74,322.80 L 290.65,321.66 L 290.50,319.00 L 290.43,317.61 L 290.30,314.43 L 290.24,312.77 L 290.14,309.02 L 290.08,307.08 L 290.00,302.73 L 289.88,295.50 L 289.50,266.50 L 295.50,265.86 L 296.10,265.79 L 297.65,265.68 L 298.47,265.62 L 300.43,265.53 L 301.46,265.48 L 303.75,265.40 L 304.94,265.36 L 307.50,265.30 L 310.12,265.24 L 315.87,265.17 L 318.79,265.14 L 324.71,265.14 L 327.64,265.15 L 333.18,265.21 L 334.51,265.23 L 337.01,265.28 L 338.23,265.31 L 340.44,265.37 L 341.50,265.41 L 343.36,265.49 L 344.23,265.53 L 345.66,265.63 L 346.31,265.68 L 347.24,265.79 L 348.00,265.98 L 348.28,266.15 L 348.74,266.98 L 348.95,267.48 L 349.28,269.10 L 349.36,269.57 L 349.50,270.68 L 349.57,271.27 L 349.69,272.64 L 349.75,273.37 L 349.85,275.03 L 350.00,277.88 L 350.06,279.15 L 350.17,281.29 L 350.23,282.30 L 350.36,283.99 L 350.42,284.79 L 350.58,286.12 L 350.67,286.75 L 350.89,287.81 L 351.12,288.83 L 351.85,290.47 L 353.50,293.06 L 354.24,294.10 L 355.44,295.79 L 356.04,296.58 L 357.40,297.81 L 358.16,298.38 L 360.26,299.23 L 360.86,299.42 L 362.30,299.74 L 363.07,299.90 L 364.90,300.15 L 365.86,300.27 L 368.15,300.46 L 369.35,300.55 L 372.17,300.68 L 373.64,300.75 L 377.06,300.84 L 378.85,300.88 L 382.94,300.94 L 385.08,300.96 L 389.91,300.99 L 392.43,301.00 L 398.09,301.01 L 401.03,301.02 L 407.58,301.02 L 418.48,301.02 L 422.34,301.02 L 429.83,301.04 L 433.54,301.06 L 440.61,301.10 L 444.09,301.13 L 450.59,301.20 L 453.76,301.23 L 459.53,301.32 L 462.31,301.37 L 467.21,301.47 L 468.37,301.49 L 470.50,301.55 L 471.53,301.58 L 473.39,301.64 L 474.28,301.67 L 475.84,301.73 L 476.59,301.76 L 477.84,301.83 L 478.42,301.86 L 479.35,301.92 L 480.33,302.03 L 482.03,302.27 L 485.44,303.08 L 487.13,303.53 L 490.48,304.71 L 492.14,305.34 L 495.39,306.87 L 496.99,307.68 L 500.07,309.52 L 501.58,310.48 L 504.44,312.59 L 505.84,313.68 L 508.42,316.04 L 509.67,317.25 L 511.93,319.81 L 514.88,323.85 L 515.28,324.49 L 516.19,326.21 L 516.65,327.12 L 517.58,329.19 L 518.04,330.25 L 518.89,332.41 L 519.94,335.50 L 520.20,336.36 L 520.62,337.96 L 520.82,338.79 L 521.13,340.75 L 521.20,341.29 L 521.33,342.53 L 521.39,343.18 L 521.49,344.70 L 521.54,345.50 L 521.63,347.37 L 521.66,348.36 L 521.73,350.65 L 521.76,351.85 L 521.80,354.63 L 521.82,356.09 L 521.85,359.43 L 521.86,361.17 L 521.88,365.14 L 521.88,367.21 L 521.89,371.87 L 521.89,374.30 L 521.88,379.73 L 521.87,382.54 L 521.85,388.81 L 521.84,392.05 L 521.82,399.23 L 521.77,411.08 L 521.50,479.66 L 518.70,483.33 L 517.54,484.85 L 514.95,487.16 L 513.62,488.20 L 510.75,489.51 L 509.30,490.04 L 506.28,490.32 L 505.52,490.32 L 503.99,490.13 L 503.22,490.00 M 585.50,423.51 L 584.52,423.05 L 582.93,422.16 L 582.18,421.70 L 580.88,420.65 L 580.24,420.09 L 579.00,418.70 L 576.96,416.00 L 574.50,412.50 L 574.00,353.32 L 573.98,351.21 L 573.95,347.19 L 573.93,345.22 L 573.91,341.47 L 573.88,337.79 L 573.82,331.21 L 573.80,328.03 L 573.74,322.40 L 573.71,319.70 L 573.63,314.94 L 573.59,312.67 L 573.48,308.70 L 573.42,306.81 L 573.27,303.56 L 573.19,302.02 L 572.99,299.40 L 572.88,298.16 L 572.61,296.10 L 572.47,295.12 L 572.12,293.52 L 571.94,292.77 L 571.51,291.56 L 571.27,291.00 L 570.74,290.10 L 570.45,289.67 L 569.80,289.00 L 569.12,288.36 L 567.37,287.42 L 564.05,285.87 L 562.58,285.14 L 559.88,283.31 L 559.28,282.86 L 558.32,281.99 L 557.38,280.87 L 557.18,280.50 L 556.83,279.21 L 556.67,278.48 L 556.41,276.55 L 556.29,275.51 L 556.14,273.01 L 556.04,268.75 L 556.00,259.00 L 579.25,258.78 L 582.45,258.75 L 589.07,258.68 L 592.35,258.65 L 598.61,258.58 L 600.11,258.56 L 602.93,258.53 L 604.30,258.52 L 606.78,258.49 L 607.97,258.47 L 610.02,258.45 L 612.50,258.41 L 614.32,258.39 L 617.25,258.33 L 618.61,258.31 L 620.74,258.35 L 621.71,258.39 L 623.15,258.62 L 623.80,258.77 L 624.70,259.31 L 625.09,259.63 L 625.56,260.57 L 625.75,261.10 L 625.93,262.56 L 626.00,263.36 L 626.02,265.43 L 626.00,269.34 L 626.00,270.83 L 625.95,273.34 L 625.92,274.53 L 625.77,276.52 L 625.68,277.46 L 625.39,279.03 L 625.22,279.77 L 624.74,281.00 L 624.48,281.58 L 623.78,282.56 L 623.40,283.03 L 622.44,283.85 L 621.92,284.26 L 620.65,285.01 L 618.35,286.18 L 617.31,286.66 L 615.63,287.42 L 614.85,287.81 L 613.62,288.83 L 613.34,289.13 L 612.85,289.89 L 612.61,290.30 L 612.21,291.34 L 612.02,291.90 L 611.69,293.28 L 611.53,294.03 L 611.27,295.85 L 611.15,296.82 L 610.95,299.15 L 610.85,300.39 L 610.70,303.30 L 610.63,304.84 L 610.51,308.41 L 610.46,310.29 L 610.37,314.61 L 610.33,316.86 L 610.27,321.99 L 610.24,324.66 L 610.18,330.68 L 610.15,333.81 L 610.10,340.80 L 610.08,342.61 L 610.05,346.43 L 610.00,352.45 L 609.50,411.50 L 607.06,415.75 L 606.63,416.51 L 605.67,417.84 L 605.17,418.47 L 604.03,419.60 L 603.43,420.14 L 602.04,421.12 L 599.62,422.50 L 598.21,423.20 L 595.67,424.13 L 594.42,424.52 L 592.11,424.84 L 590.98,424.92 L 588.78,424.63 L 587.69,424.40 M 1038.23,416.92 L 1037.15,416.75 L 1034.78,416.27 L 1033.57,416.01 L 1031.02,415.36 L 1028.44,414.67 L 1023.09,412.92 L 1020.45,412.00 L 1015.51,409.97 L 1014.33,409.46 L 1012.17,408.42 L 1009.32,406.88 L 1007.85,406.01 L 1004.84,403.93 L 1003.33,402.83 L 1000.32,400.36 L 998.81,399.09 L 995.84,396.30 L 994.37,394.87 L 991.51,391.83 L 990.11,390.29 L 987.42,387.07 L 986.11,385.44 L 983.66,382.11 L 982.47,380.43 L 980.32,377.05 L 977.49,372.00 L 976.14,369.33 L 973.89,363.86 L 972.84,361.11 L 971.18,355.51 L 970.42,352.70 L 969.34,347.01 L 968.87,344.17 L 968.34,338.45 L 968.15,335.58 L 968.17,329.87 L 968.25,327.02 L 968.80,321.36 L 969.14,318.54 L 970.21,312.98 L 970.81,310.22 L 972.39,304.81 L 973.23,302.12 L 975.30,296.90 L 976.39,294.32 L 978.92,289.33 L 980.25,286.87 L 983.24,282.17 L 984.80,279.86 L 988.23,275.48 L 990.01,273.34 L 993.88,269.34 L 995.87,267.39 L 1000.15,263.81 L 1002.35,262.08 L 1007.03,258.96 L 1014.50,254.87 L 1016.34,253.99 L 1020.04,252.46 L 1021.90,251.73 L 1025.60,250.50 L 1027.46,249.92 L 1031.16,249.00 L 1033.01,248.57 L 1036.71,247.94 L 1038.55,247.67 L 1042.22,247.33 L 1044.06,247.21 L 1047.70,247.17 L 1049.51,247.19 L 1053.11,247.45 L 1054.90,247.62 L 1058.45,248.17 L 1060.21,248.48 L 1063.70,249.32 L 1065.44,249.78 L 1068.85,250.91 L 1070.55,251.51 L 1073.88,252.93 L 1075.54,253.67 L 1078.79,255.38 L 1080.40,256.26 L 1083.54,258.25 L 1085.10,259.28 L 1088.13,261.55 L 1089.64,262.72 L 1092.55,265.27 L 1096.78,269.41 L 1098.86,271.60 L 1102.58,276.13 L 1104.37,278.43 L 1107.51,283.20 L 1109.01,285.62 L 1111.58,290.66 L 1112.79,293.22 L 1114.81,298.58 L 1115.75,301.31 L 1117.23,307.02 L 1117.90,309.92 L 1118.85,316.03 L 1119.27,319.13 L 1119.70,325.67 L 1119.80,336.00 L 1119.50,347.50 L 1065.25,347.50 L 1061.52,347.50 L 1054.35,347.52 L 1050.83,347.53 L 1044.19,347.56 L 1040.94,347.58 L 1034.97,347.63 L 1032.09,347.66 L 1026.94,347.73 L 1024.48,347.76 L 1020.30,347.84 L 1019.32,347.86 L 1017.57,347.91 L 1016.74,347.93 L 1015.28,347.98 L 1014.59,348.00 L 1013.45,348.05 L 1012.92,348.07 L 1012.11,348.12 L 1011.74,348.15 L 1011.28,348.20 L 1011.00,348.28 L 1011.00,348.57 L 1011.29,349.52 L 1011.47,350.04 L 1012.07,351.36 L 1012.40,352.06 L 1013.25,353.64 L 1013.69,354.44 L 1014.71,356.16 L 1015.75,357.88 L 1018.05,361.24 L 1018.62,362.03 L 1019.73,363.44 L 1021.25,365.19 L 1022.74,366.72 L 1025.79,369.30 L 1027.34,370.51 L 1030.60,372.49 L 1032.26,373.42 L 1035.83,374.87 L 1041.64,376.51 L 1043.30,376.86 L 1046.96,377.36 L 1048.83,377.57 L 1052.82,377.79 L 1054.84,377.87 L 1059.04,377.82 L 1061.15,377.77 L 1065.46,377.47 L 1067.62,377.28 L 1071.93,376.74 L 1074.08,376.43 L 1078.28,375.64 L 1080.36,375.22 L 1084.34,374.20 L 1089.96,372.43 L 1090.85,372.11 L 1092.49,371.54 L 1093.28,371.28 L 1094.60,370.85 L 1095.21,370.66 L 1096.06,370.42 L 1096.67,370.33 L 1096.68,370.35 L 1096.89,370.74 L 1097.02,370.99 L 1097.43,371.80 L 1097.66,372.26 L 1098.26,373.46 L 1098.58,374.10 L 1099.34,375.63 L 1099.74,376.43 L 1100.64,378.25 L 1101.10,379.19 L 1102.11,381.23 L 1105.44,388.04 L 1106.40,389.99 L 1108.00,393.28 L 1108.74,394.84 L 1109.95,397.40 L 1110.51,398.60 L 1111.37,400.53 L 1111.76,401.43 L 1112.31,402.83 L 1112.55,403.48 L 1112.82,404.45 L 1112.93,404.89 L 1112.96,405.54 L 1112.35,406.72 L 1112.03,406.95 L 1110.92,407.52 L 1110.28,407.82 L 1108.60,408.50 L 1107.71,408.85 L 1105.58,409.61 L 1104.48,409.99 L 1102.02,410.78 L 1099.51,411.58 L 1093.96,413.14 L 1085.78,415.13 L 1084.43,415.42 L 1081.05,415.94 L 1079.27,416.18 L 1075.20,416.60 L 1073.11,416.80 L 1068.62,417.12 L 1066.35,417.26 L 1061.70,417.47 L 1059.37,417.56 L 1054.81,417.64 L 1052.56,417.66 L 1048.34,417.61 L 1046.30,417.57 L 1042.69,417.38 L 1040.98,417.26 M 1073.31,303.80 L 1072.58,302.51 L 1070.43,299.75 L 1069.28,298.37 L 1066.57,295.69 L 1065.18,294.39 L 1062.29,292.16 L 1058.20,289.73 L 1056.36,288.90 L 1052.30,287.94 L 1050.23,287.58 L 1045.85,287.53 L 1043.65,287.62 L 1039.20,288.47 L 1032.70,290.76 L 1031.11,291.51 L 1027.75,293.60 L 1026.08,294.71 L 1022.89,297.27 L 1021.36,298.57 L 1018.77,301.21 L 1018.19,301.86 L 1017.21,303.11 L 1016.07,304.87 L 1014.93,307.00 L 1045.02,307.00 L 1075.11,307.00 L 1073.31,303.80 M 1203.47,415.47 L 1201.47,415.03 L 1197.55,413.96 L 1195.60,413.38 L 1191.80,412.05 L 1189.91,411.35 L 1186.24,409.77 L 1184.42,408.95 L 1180.89,407.14 L 1179.14,406.20 L 1175.75,404.15 L 1174.08,403.10 L 1170.86,400.84 L 1169.26,399.68 L 1166.21,397.21 L 1164.70,395.94 L 1161.82,393.27 L 1160.40,391.91 L 1157.71,389.04 L 1156.39,387.59 L 1153.89,384.54 L 1152.67,383.00 L 1150.38,379.78 L 1149.27,378.15 L 1147.19,374.76 L 1146.18,373.05 L 1144.34,369.52 L 1143.44,367.73 L 1141.83,364.05 L 1141.06,362.19 L 1139.69,358.37 L 1137.92,352.50 L 1137.52,350.98 L 1136.92,348.07 L 1136.65,346.60 L 1136.27,343.53 L 1136.11,341.95 L 1135.92,338.36 L 1135.82,332.00 L 1135.82,329.62 L 1135.92,325.64 L 1135.99,323.75 L 1136.27,320.47 L 1136.43,318.88 L 1136.92,315.93 L 1137.92,311.50 L 1138.76,308.32 L 1140.90,302.22 L 1142.04,299.21 L 1144.77,293.50 L 1146.21,290.69 L 1149.52,285.38 L 1151.24,282.78 L 1155.10,277.90 L 1157.09,275.51 L 1161.48,271.09 L 1163.74,268.94 L 1168.64,265.00 L 1171.15,263.09 L 1176.54,259.65 L 1185.16,255.09 L 1188.02,253.76 L 1193.79,251.61 L 1196.68,250.62 L 1202.50,249.14 L 1205.42,248.48 L 1211.32,247.67 L 1214.27,247.35 L 1220.24,247.22 L 1223.24,247.23 L 1229.29,247.77 L 1232.32,248.12 L 1238.46,249.33 L 1241.54,250.01 L 1247.78,251.89 L 1257.25,255.47 L 1257.63,255.63 L 1258.16,255.71 L 1258.39,255.70 L 1258.69,255.35 L 1258.81,255.11 L 1258.94,254.21 L 1259.00,252.11 L 1259.00,248.00 L 1279.00,248.00 L 1299.00,248.00 L 1299.00,331.50 L 1299.00,415.00 L 1279.00,415.00 L 1259.00,415.00 L 1259.00,411.50 L 1259.00,410.54 L 1258.75,409.03 L 1258.67,408.71 L 1258.47,408.28 L 1258.14,408.00 L 1258.02,408.00 L 1257.30,408.23 L 1256.87,408.37 L 1255.65,408.85 L 1255.00,409.11 L 1253.44,409.76 L 1250.89,410.88 L 1250.01,411.27 L 1247.84,412.12 L 1246.71,412.55 L 1244.26,413.39 L 1243.03,413.80 L 1240.60,414.52 L 1237.30,415.38 L 1236.22,415.62 L 1233.73,416.02 L 1232.43,416.20 L 1229.59,416.48 L 1226.69,416.73 L 1220.39,416.87 L 1217.23,416.87 L 1211.18,416.53 L 1209.73,416.42 L 1207.05,416.09 L 1205.75,415.92 M 1232.14,375.01 L 1233.79,374.50 L 1236.91,373.13 L 1238.44,372.39 L 1241.31,370.59 L 1242.72,369.63 L 1245.33,367.44 L 1246.59,366.29 L 1248.90,363.73 L 1250.02,362.40 L 1252.00,359.51 L 1252.95,358.03 L 1254.58,354.83 L 1255.35,353.20 L 1256.60,349.74 L 1258.02,344.29 L 1258.21,343.35 L 1258.50,340.77 L 1258.63,339.39 L 1258.79,336.08 L 1258.86,334.35 L 1258.90,330.50 L 1258.81,324.32 L 1258.77,322.87 L 1258.68,320.36 L 1258.63,319.16 L 1258.52,317.11 L 1258.46,316.13 L 1258.32,314.46 L 1258.25,313.66 L 1258.08,312.30 L 1257.89,311.01 L 1257.37,309.04 L 1256.27,306.43 L 1255.70,305.35 L 1254.21,303.22 L 1253.41,302.17 L 1251.51,300.15 L 1250.51,299.16 L 1248.25,297.28 L 1247.08,296.36 L 1244.53,294.66 L 1243.23,293.83 L 1240.44,292.35 L 1239.03,291.64 L 1236.08,290.42 L 1234.59,289.84 L 1231.53,288.92 L 1226.88,287.90 L 1224.48,287.52 L 1219.69,287.37 L 1217.30,287.40 L 1212.61,288.05 L 1210.29,288.47 L 1205.79,289.87 L 1203.57,290.66 L 1199.34,292.77 L 1197.26,293.91 L 1193.37,296.69 L 1191.48,298.15 L 1188.03,301.54 L 1186.36,303.31 L 1183.42,307.28 L 1179.66,313.82 L 1179.29,314.61 L 1178.67,315.97 L 1178.38,316.62 L 1177.91,317.79 L 1177.47,318.95 L 1176.96,321.21 L 1176.86,321.82 L 1176.71,323.16 L 1176.65,323.86 L 1176.57,325.49 L 1176.54,326.36 L 1176.51,328.40 L 1176.50,332.05 L 1176.50,333.47 L 1176.51,335.82 L 1176.52,336.93 L 1176.57,338.77 L 1176.60,339.64 L 1176.72,341.12 L 1176.78,341.82 L 1176.99,343.07 L 1177.23,344.29 L 1178.10,346.63 L 1178.36,347.25 L 1179.01,348.66 L 1180.22,351.13 L 1181.45,353.63 L 1184.47,358.15 L 1186.06,360.33 L 1189.69,364.18 L 1191.57,366.01 L 1195.72,369.12 L 1197.84,370.58 L 1202.39,372.92 L 1204.70,373.98 L 1209.53,375.48 L 1211.97,376.12 L 1216.98,376.73 L 1219.50,376.92 L 1224.58,376.60 L 1227.11,376.32 M 750.00,301.50 L 750.00,188.00 L 818.50,188.00 L 887.00,188.00 L 887.00,208.00 L 887.00,228.00 L 838.50,228.00 L 790.00,228.00 L 790.00,267.49 L 790.00,306.98 L 829.54,307.24 L 869.09,307.50 L 869.29,327.24 L 869.50,346.98 L 830.00,347.24 L 790.50,347.50 L 790.24,381.25 L 789.97,415.00 L 769.99,415.00 L 750.00,415.00 L 750.00,301.50 M 906.00,301.50 L 906.00,188.00 L 926.00,188.00 L 946.00,188.00 L 946.00,301.50 L 946.00,415.00 L 926.00,415.00 L 906.00,415.00 L 906.00,301.50 M 1328.00,301.50 L 1328.00,188.00 L 1347.99,188.00 L 1367.98,188.00 L 1368.24,247.42 L 1368.50,306.84 L 1392.98,277.42 L 1417.46,248.00 L 1443.23,248.00 L 1446.78,248.00 L 1453.24,248.04 L 1454.78,248.06 L 1457.61,248.10 L 1458.98,248.12 L 1461.43,248.16 L 1462.60,248.19 L 1464.58,248.25 L 1465.51,248.28 L 1466.97,248.34 L 1467.62,248.37 L 1468.47,248.44 L 1469.00,248.56 L 1469.00,248.58 L 1468.87,248.77 L 1468.78,248.89 L 1468.48,249.28 L 1468.15,249.73 L 1467.01,251.16 L 1466.37,251.96 L 1464.67,254.05 L 1463.76,255.16 L 1461.58,257.82 L 1460.44,259.22 L 1457.84,262.37 L 1456.50,264.00 L 1453.55,267.55 L 1452.05,269.37 L 1448.82,273.25 L 1443.75,279.33 L 1442.01,281.40 L 1438.65,285.43 L 1437.00,287.41 L 1433.85,291.18 L 1432.31,293.02 L 1429.45,296.45 L 1428.07,298.11 L 1425.57,301.11 L 1424.37,302.54 L 1422.30,305.03 L 1421.33,306.20 L 1419.77,308.08 L 1419.05,308.93 L 1418.07,310.13 L 1417.31,311.05 L 1417.19,311.20 L 1417.24,311.95 L 1417.32,312.41 L 1417.83,313.91 L 1417.99,314.34 L 1418.42,315.37 L 1418.65,315.92 L 1419.23,317.21 L 1419.53,317.88 L 1420.27,319.45 L 1420.66,320.26 L 1421.56,322.12 L 1422.04,323.09 L 1423.12,325.28 L 1423.69,326.41 L 1424.97,328.94 L 1425.64,330.25 L 1427.12,333.14 L 1427.89,334.64 L 1429.60,337.92 L 1430.48,339.62 L 1432.41,343.32 L 1433.40,345.22 L 1435.57,349.36 L 1436.68,351.49 L 1439.10,356.08 L 1443.02,363.53 L 1469.92,414.50 L 1448.23,414.77 L 1445.25,414.81 L 1439.72,414.84 L 1438.40,414.85 L 1435.94,414.85 L 1434.74,414.85 L 1432.59,414.83 L 1431.55,414.83 L 1429.76,414.80 L 1428.92,414.79 L 1427.57,414.75 L 1426.95,414.73 L 1426.09,414.69 L 1425.42,414.61 L 1425.34,414.58 L 1424.83,413.83 L 1424.52,413.35 L 1423.57,411.77 L 1423.05,410.88 L 1421.74,408.57 L 1421.03,407.32 L 1419.39,404.36 L 1418.53,402.81 L 1416.62,399.29 L 1415.63,397.48 L 1413.49,393.51 L 1412.40,391.48 L 1410.09,387.14 L 1406.49,380.34 L 1405.27,378.01 L 1402.91,373.53 L 1401.76,371.33 L 1399.57,367.18 L 1398.50,365.15 L 1396.53,361.41 L 1395.57,359.60 L 1393.87,356.36 L 1393.05,354.81 L 1391.66,352.18 L 1391.01,350.95 L 1389.98,349.00 L 1389.52,348.13 L 1388.90,346.97 L 1388.50,346.23 L 1388.48,346.21 L 1388.25,346.42 L 1388.10,346.56 L 1387.62,347.07 L 1387.35,347.36 L 1386.64,348.13 L 1386.27,348.55 L 1385.37,349.55 L 1384.43,350.61 L 1382.10,353.30 L 1378.15,357.93 L 1368.00,369.89 L 1368.00,392.45 L 1368.00,415.00 L 1348.00,415.00 L 1328.00,415.00 L 1328.00,301.50 M 290.83,234.83 L 290.64,234.64 L 290.32,234.11 L 290.18,233.80 L 289.94,232.86 L 289.83,232.32 L 289.66,230.77 L 289.58,229.89 L 289.47,227.50 L 289.45,226.84 L 289.41,225.33 L 289.39,224.54 L 289.37,222.75 L 289.36,221.82 L 289.34,219.71 L 289.34,218.62 L 289.34,216.19 L 289.34,214.92 L 289.34,212.12 L 289.35,210.67 L 289.36,207.49 L 289.37,205.84 L 289.40,202.23 L 289.44,196.33 L 289.46,193.15 L 289.52,187.38 L 289.56,184.59 L 289.64,179.58 L 289.68,177.17 L 289.78,172.90 L 289.83,170.86 L 289.95,167.30 L 290.01,165.61 L 290.15,162.75 L 290.22,161.40 L 290.39,159.21 L 290.47,158.19 L 290.66,156.64 L 290.96,155.03 L 291.40,153.41 L 292.62,150.22 L 293.28,148.62 L 294.89,145.51 L 295.73,143.97 L 297.68,140.99 L 298.69,139.52 L 300.94,136.73 L 302.09,135.37 L 304.58,132.83 L 305.85,131.60 L 308.54,129.37 L 309.91,128.30 L 312.75,126.42 L 317.14,124.08 L 319.23,123.14 L 323.44,121.70 L 325.58,121.04 L 330.25,120.13 L 331.46,119.93 L 334.06,119.62 L 335.40,119.48 L 338.27,119.27 L 339.75,119.18 L 342.96,119.07 L 348.21,119.01 L 349.54,119.01 L 351.76,119.02 L 352.80,119.02 L 354.53,119.06 L 355.34,119.08 L 356.64,119.15 L 357.25,119.20 L 358.20,119.31 L 359.08,119.45 L 360.06,119.90 L 360.96,120.93 L 361.05,121.09 L 361.20,121.88 L 361.27,122.36 L 361.40,123.80 L 361.46,124.59 L 361.58,126.62 L 361.63,127.71 L 361.73,130.32 L 361.77,131.69 L 361.84,134.84 L 361.88,136.48 L 361.93,140.14 L 361.95,142.03 L 361.98,146.17 L 362.00,152.88 L 362.00,182.90 L 358.45,185.61 L 357.96,185.98 L 356.88,186.99 L 356.33,187.52 L 355.22,188.75 L 354.68,189.37 L 353.68,190.66 L 352.45,192.49 L 351.86,193.50 L 351.07,195.23 L 350.90,195.69 L 350.64,196.74 L 350.52,197.30 L 350.34,198.65 L 350.26,199.39 L 350.15,201.21 L 350.10,202.20 L 350.04,204.65 L 350.02,205.96 L 350.00,209.19 L 349.98,215.09 L 349.98,217.62 L 349.92,222.33 L 349.88,224.60 L 349.75,228.45 L 349.71,229.34 L 349.63,230.88 L 349.59,231.61 L 349.50,232.79 L 349.45,233.33 L 349.35,234.10 L 349.20,234.72 L 349.12,234.83 L 348.64,235.03 L 348.34,235.13 L 347.37,235.30 L 346.81,235.39 L 345.29,235.53 L 344.46,235.60 L 342.35,235.73 L 341.22,235.79 L 338.47,235.89 L 337.01,235.94 L 333.57,236.02 L 331.77,236.06 L 327.59,236.13 L 320.46,236.22 L 318.90,236.23 L 316.02,236.26 L 314.62,236.27 L 312.06,236.29 L 310.82,236.30 L 308.56,236.31 L 307.46,236.32 L 305.48,236.32 L 303.56,236.32 L 300.48,236.28 L 299.05,236.26 L 296.82,236.18 L 295.80,236.13 L 294.26,235.99 L 293.57,235.92 L 292.57,235.71 L 292.12,235.60 L 291.51,235.33 L 291.23,235.18 M 543.76,231.43 L 542.87,230.95 L 541.36,229.55 L 540.65,228.79 L 539.54,226.91 L 539.05,225.92 L 538.40,223.66 L 538.00,219.95 L 538.00,219.11 L 538.14,217.74 L 538.24,217.10 L 538.65,215.97 L 538.89,215.41 L 539.65,214.32 L 541.30,212.50 L 542.03,211.77 L 543.28,210.73 L 543.91,210.26 L 545.28,209.64 L 546.02,209.37 L 547.97,208.99 L 548.51,208.91 L 549.79,208.75 L 552.05,208.53 L 552.56,208.48 L 554.30,208.40 L 555.28,208.36 L 557.86,208.29 L 559.24,208.26 L 562.55,208.20 L 564.28,208.18 L 568.18,208.14 L 570.19,208.13 L 574.57,208.11 L 576.81,208.10 L 581.55,208.10 L 596.50,208.17 L 599.03,208.20 L 603.64,208.24 L 605.87,208.26 L 609.90,208.31 L 611.85,208.33 L 615.35,208.38 L 617.04,208.41 L 620.04,208.48 L 621.49,208.52 L 624.05,208.61 L 625.28,208.66 L 627.43,208.77 L 628.46,208.83 L 630.26,208.98 L 631.11,209.06 L 632.58,209.25 L 633.98,209.45 L 636.01,210.00 L 636.92,210.30 L 638.21,211.08 L 638.80,211.50 L 639.72,212.57 L 641.02,214.54 L 641.50,215.31 L 642.16,216.89 L 642.44,217.69 L 642.74,219.30 L 642.84,220.10 L 642.78,221.70 L 642.71,222.50 L 642.32,224.03 L 642.08,224.79 L 641.35,226.23 L 640.95,226.93 L 639.92,228.22 L 639.37,228.84 L 638.03,229.94 L 635.72,231.33 L 635.33,231.52 L 634.39,231.83 L 633.87,231.97 L 632.50,232.21 L 631.74,232.33 L 629.70,232.51 L 628.57,232.59 L 625.62,232.71 L 624.81,232.74 L 622.98,232.79 L 622.03,232.81 L 619.90,232.85 L 618.79,232.87 L 616.32,232.90 L 615.03,232.91 L 612.19,232.93 L 610.72,232.94 L 607.47,232.95 L 605.80,232.95 L 602.13,232.96 L 600.23,232.96 L 596.10,232.96 L 589.35,232.96 L 587.10,232.96 L 582.94,232.95 L 580.91,232.95 L 577.16,232.94 L 575.34,232.93 L 571.99,232.91 L 570.36,232.90 L 567.38,232.88 L 565.94,232.87 L 563.31,232.84 L 562.04,232.83 L 559.73,232.79 L 558.62,232.77 L 556.62,232.73 L 555.66,232.70 L 553.94,232.65 L 552.28,232.60 L 549.72,232.46 L 548.54,232.38 L 546.80,232.19 L 546.01,232.09 L 544.91,231.86 L 544.42,231.73 M 559.18,189.28 L 558.86,189.22 L 557.99,188.92 L 557.54,188.75 L 556.49,188.26 L 553.29,186.42 L 549.72,184.00 L 491.06,184.00 L 488.29,184.00 L 483.10,184.00 L 480.56,183.99 L 475.81,183.99 L 473.49,183.98 L 469.17,183.97 L 467.06,183.96 L 463.15,183.94 L 461.24,183.93 L 457.73,183.90 L 456.03,183.89 L 452.90,183.86 L 451.38,183.84 L 448.61,183.80 L 447.27,183.78 L 444.86,183.74 L 443.70,183.72 L 441.62,183.66 L 440.62,183.64 L 438.86,183.58 L 438.02,183.55 L 436.56,183.48 L 435.87,183.45 L 434.71,183.37 L 434.16,183.33 L 433.27,183.25 L 432.85,183.20 L 432.22,183.11 L 431.20,182.80 L 431.09,182.69 L 430.90,182.11 L 430.80,181.75 L 430.64,180.63 L 430.56,180.01 L 430.43,178.31 L 430.37,177.39 L 430.27,175.06 L 430.22,173.82 L 430.15,170.82 L 430.11,169.23 L 430.06,165.50 L 430.04,163.53 L 430.02,159.03 L 430.00,151.34 L 430.00,149.53 L 430.00,146.23 L 430.00,144.63 L 430.01,141.73 L 430.01,140.33 L 430.02,137.80 L 430.03,136.58 L 430.04,134.39 L 430.05,133.34 L 430.08,131.47 L 430.09,130.57 L 430.13,128.99 L 430.16,127.48 L 430.27,125.22 L 430.34,124.20 L 430.51,122.75 L 430.61,122.11 L 430.85,121.28 L 430.99,120.92 L 431.32,120.48 L 431.93,120.04 L 432.02,119.99 L 432.58,119.91 L 432.92,119.87 L 433.98,119.79 L 434.57,119.75 L 436.09,119.67 L 436.91,119.64 L 438.86,119.57 L 439.89,119.54 L 442.25,119.48 L 443.47,119.45 L 446.19,119.39 L 447.59,119.36 L 450.64,119.31 L 452.21,119.29 L 455.56,119.24 L 458.98,119.20 L 466.59,119.13 L 470.49,119.09 L 478.87,119.04 L 483.13,119.02 L 492.01,119.00 L 496.49,118.98 L 505.62,118.98 L 510.20,118.98 L 519.31,119.00 L 523.84,119.01 L 532.68,119.05 L 537.03,119.07 L 545.32,119.13 L 549.38,119.17 L 556.86,119.25 L 558.67,119.27 L 562.09,119.32 L 563.76,119.35 L 566.89,119.40 L 568.42,119.43 L 571.22,119.49 L 572.58,119.52 L 575.02,119.59 L 576.20,119.62 L 578.25,119.69 L 579.23,119.73 L 580.86,119.80 L 581.61,119.84 L 582.79,119.92 L 584.00,120.05 L 585.61,120.31 L 588.74,121.05 L 590.28,121.46 L 593.27,122.51 L 594.74,123.08 L 597.60,124.44 L 599.01,125.16 L 601.74,126.83 L 603.09,127.71 L 605.70,129.71 L 606.99,130.75 L 609.49,133.06 L 610.72,134.26 L 613.11,136.91 L 616.58,141.25 L 617.44,142.41 L 618.94,144.67 L 619.65,145.79 L 620.87,148.04 L 621.45,149.16 L 622.41,151.48 L 622.86,152.66 L 623.59,155.14 L 623.93,156.40 L 624.46,159.13 L 624.69,160.54 L 625.03,163.60 L 625.18,165.19 L 625.36,168.68 L 625.47,174.50 L 625.50,188.50 L 619.50,189.14 L 619.08,189.19 L 617.76,189.27 L 617.02,189.31 L 615.13,189.38 L 614.12,189.42 L 611.76,189.48 L 610.52,189.51 L 607.76,189.56 L 606.34,189.59 L 603.27,189.63 L 601.71,189.65 L 598.43,189.68 L 595.10,189.71 L 588.19,189.74 L 584.74,189.75 L 578.09,189.73 L 576.48,189.73 L 573.43,189.70 L 571.94,189.69 L 569.19,189.66 L 567.87,189.64 L 565.52,189.59 L 564.40,189.57 L 562.54,189.51 L 561.67,189.48 L 560.38,189.41 L 559.81,189.37 M 382.70,183.37 L 382.66,183.32 L 382.56,182.60 L 382.52,182.15 L 382.43,180.68 L 382.39,179.86 L 382.31,177.73 L 382.27,176.59 L 382.21,173.87 L 382.17,172.45 L 382.12,169.25 L 382.10,167.59 L 382.06,163.98 L 382.04,162.13 L 382.01,158.20 L 382.00,152.03 L 382.00,149.22 L 382.02,144.24 L 382.03,141.86 L 382.06,137.69 L 382.09,135.71 L 382.15,132.31 L 382.18,130.70 L 382.27,128.01 L 382.32,126.75 L 382.43,124.73 L 382.49,123.79 L 382.64,122.38 L 382.72,121.75 L 382.90,120.90 L 383.20,120.20 L 383.40,120.00 L 384.22,119.68 L 384.68,119.53 L 385.93,119.31 L 387.25,119.12 L 390.54,119.03 L 392.19,119.04 L 395.26,119.34 L 395.96,119.45 L 397.11,119.72 L 398.32,120.25 L 398.52,120.39 L 398.84,120.80 L 399.00,121.05 L 399.24,121.80 L 399.35,122.23 L 399.53,123.50 L 399.61,124.22 L 399.72,126.21 L 399.77,127.30 L 399.83,130.18 L 399.84,130.96 L 399.85,132.73 L 399.86,133.65 L 399.86,135.70 L 399.86,136.77 L 399.86,139.13 L 399.85,140.35 L 399.84,143.05 L 399.83,144.44 L 399.81,147.49 L 399.77,152.50 L 399.50,183.50 L 391.45,183.79 L 390.35,183.83 L 388.27,183.84 L 387.28,183.84 L 385.56,183.78 L 384.77,183.75 L 383.61,183.62 L 383.12,183.55 Z"
                fill="rgba(137,237,0,1)"
              />
            </g>
          </svg>